<svg width="313" height="47" viewBox="0 0 313 47" fill="none" xmlns="http://www.w3.org/2000/svg">
<path d="M68.7836 24.272C68.7836 25.936 68.5276 27.408 68.0156 28.688C67.5249 29.968 66.8316 31.0453 65.9356 31.92C65.0396 32.7733 63.9836 33.424 62.7676 33.872C61.5516 34.32 60.2289 34.544 58.7996 34.544C57.3703 34.544 56.0476 34.32 54.8316 33.872C53.6156 33.424 52.5596 32.7733 51.6636 31.92C50.7889 31.0453 50.0956 29.968 49.5836 28.688C49.0929 27.408 48.8476 25.936 48.8476 24.272C48.8476 22.608 49.1036 21.1467 49.6156 19.888C50.1276 18.608 50.8316 17.5413 51.7276 16.688C52.6236 15.8133 53.6689 15.152 54.8636 14.704C56.0796 14.256 57.3916 14.032 58.7996 14.032C60.2076 14.032 61.5196 14.256 62.7356 14.704C63.9516 15.152 65.0076 15.8133 65.9036 16.688C66.7996 17.5413 67.5036 18.608 68.0156 19.888C68.5276 21.1467 68.7836 22.608 68.7836 24.272ZM63.5996 24.272C63.5996 22.224 63.1623 20.688 62.2876 19.664C61.4343 18.6187 60.2716 18.096 58.7996 18.096C57.3489 18.096 56.1863 18.6187 55.3116 19.664C54.4369 20.688 53.9996 22.224 53.9996 24.272C53.9996 26.3413 54.4263 27.8987 55.2796 28.944C56.1543 29.968 57.3276 30.48 58.7996 30.48C60.2716 30.48 61.4343 29.968 62.2876 28.944C63.1623 27.8987 63.5996 26.3413 63.5996 24.272ZM89.3979 33.392C89.0992 33.648 88.6939 33.8507 88.1819 34C87.6699 34.1707 87.0619 34.256 86.3579 34.256C85.6325 34.256 84.9499 34.1387 84.3099 33.904C83.6699 33.6693 83.1365 33.136 82.7099 32.304L78.9979 25.136C78.6352 24.4533 78.2939 23.7707 77.9739 23.088C77.6752 22.4053 77.3765 21.6907 77.0779 20.944L76.8539 21.008C76.9605 22.288 77.0245 23.5147 77.0459 24.688C77.0672 25.84 77.0779 26.96 77.0779 28.048V34C76.8645 34.0427 76.5445 34.0853 76.1179 34.128C75.7125 34.192 75.2859 34.224 74.8379 34.224C73.8779 34.224 73.2059 34.064 72.8219 33.744C72.4379 33.4027 72.2459 32.8053 72.2459 31.952V15.472C72.5019 15.1093 72.9072 14.832 73.4619 14.64C74.0379 14.4267 74.6459 14.32 75.2859 14.32C76.0325 14.32 76.7152 14.4373 77.3339 14.672C77.9739 14.9067 78.5072 15.4293 78.9339 16.24L82.6779 23.44C83.0405 24.1227 83.3712 24.8053 83.6699 25.488C83.9899 26.1707 84.2992 26.8853 84.5979 27.632L84.7259 27.6C84.6192 26.1707 84.5552 24.816 84.5339 23.536C84.5339 22.256 84.5339 21.0293 84.5339 19.856V14.544C84.7472 14.5013 85.0565 14.448 85.4619 14.384C85.8885 14.32 86.3365 14.288 86.8059 14.288C87.7659 14.288 88.4379 14.4587 88.8219 14.8C89.2059 15.12 89.3979 15.7067 89.3979 16.56V33.392ZM96.4956 34.064C95.6849 34.064 95.0343 33.8293 94.5436 33.36C94.0743 32.8693 93.8396 32.2187 93.8396 31.408V14.544C94.0743 14.5013 94.4049 14.448 94.8316 14.384C95.2796 14.32 95.7169 14.288 96.1436 14.288C97.1036 14.288 97.7969 14.448 98.2236 14.768C98.6503 15.088 98.8636 15.7173 98.8636 16.656V30H106.544C106.672 30.2133 106.789 30.4907 106.896 30.832C107.024 31.1733 107.088 31.5467 107.088 31.952C107.088 32.656 106.928 33.1893 106.608 33.552C106.309 33.8933 105.893 34.064 105.36 34.064H96.4956ZM112.871 34.224C111.869 34.224 111.165 34.0533 110.759 33.712C110.375 33.3707 110.183 32.752 110.183 31.856V14.544C110.418 14.5013 110.749 14.448 111.175 14.384C111.623 14.32 112.071 14.288 112.519 14.288C113.479 14.288 114.162 14.448 114.567 14.768C114.994 15.088 115.207 15.7173 115.207 16.656V33.968C114.973 34.032 114.642 34.0853 114.215 34.128C113.789 34.192 113.341 34.224 112.871 34.224ZM136.835 33.392C136.537 33.648 136.131 33.8507 135.619 34C135.107 34.1707 134.499 34.256 133.795 34.256C133.07 34.256 132.387 34.1387 131.747 33.904C131.107 33.6693 130.574 33.136 130.147 32.304L126.435 25.136C126.073 24.4533 125.731 23.7707 125.411 23.088C125.113 22.4053 124.814 21.6907 124.515 20.944L124.291 21.008C124.398 22.288 124.462 23.5147 124.483 24.688C124.505 25.84 124.515 26.96 124.515 28.048V34C124.302 34.0427 123.982 34.0853 123.555 34.128C123.15 34.192 122.723 34.224 122.275 34.224C121.315 34.224 120.643 34.064 120.259 33.744C119.875 33.4027 119.683 32.8053 119.683 31.952V15.472C119.939 15.1093 120.345 14.832 120.899 14.64C121.475 14.4267 122.083 14.32 122.723 14.32C123.47 14.32 124.153 14.4373 124.771 14.672C125.411 14.9067 125.945 15.4293 126.371 16.24L130.115 23.44C130.478 24.1227 130.809 24.8053 131.107 25.488C131.427 26.1707 131.737 26.8853 132.035 27.632L132.163 27.6C132.057 26.1707 131.993 24.816 131.971 23.536C131.971 22.256 131.971 21.0293 131.971 19.856V14.544C132.185 14.5013 132.494 14.448 132.899 14.384C133.326 14.32 133.774 14.288 134.243 14.288C135.203 14.288 135.875 14.4587 136.259 14.8C136.643 15.12 136.835 15.7067 136.835 16.56V33.392ZM143.933 34.064C143.122 34.064 142.472 33.8293 141.981 33.36C141.512 32.8693 141.277 32.2187 141.277 31.408V17.264C141.277 16.4533 141.512 15.8133 141.981 15.344C142.472 14.8533 143.122 14.608 143.933 14.608H154.525C154.653 14.8213 154.77 15.088 154.877 15.408C154.984 15.728 155.037 16.0907 155.037 16.496C155.037 17.2 154.877 17.7227 154.557 18.064C154.258 18.4053 153.832 18.576 153.277 18.576H146.173V22.16H153.597C153.725 22.3733 153.842 22.64 153.949 22.96C154.056 23.28 154.109 23.6427 154.109 24.048C154.109 24.752 153.96 25.2747 153.661 25.616C153.362 25.936 152.936 26.096 152.381 26.096H146.173V30.096H154.653C154.781 30.3093 154.898 30.5867 155.005 30.928C155.112 31.2693 155.165 31.6427 155.165 32.048C155.165 32.752 155.005 33.264 154.685 33.584C154.386 33.904 153.97 34.064 153.437 34.064H143.933ZM174.113 18.64V33.968C173.878 34.032 173.548 34.0853 173.121 34.128C172.694 34.192 172.246 34.224 171.777 34.224C170.774 34.224 170.07 34.0533 169.665 33.712C169.26 33.3707 169.057 32.752 169.057 31.856V18.64H164.033C163.905 18.4267 163.777 18.1493 163.649 17.808C163.542 17.4667 163.489 17.0933 163.489 16.688C163.489 15.9627 163.649 15.44 163.969 15.12C164.289 14.7787 164.726 14.608 165.281 14.608H179.265C179.414 14.8213 179.542 15.0987 179.649 15.44C179.756 15.7813 179.809 16.1547 179.809 16.56C179.809 17.264 179.649 17.7867 179.329 18.128C179.009 18.4693 178.572 18.64 178.017 18.64H174.113ZM200.815 24.272C200.815 25.936 200.559 27.408 200.047 28.688C199.556 29.968 198.863 31.0453 197.967 31.92C197.071 32.7733 196.015 33.424 194.799 33.872C193.583 34.32 192.26 34.544 190.831 34.544C189.402 34.544 188.079 34.32 186.863 33.872C185.647 33.424 184.591 32.7733 183.695 31.92C182.82 31.0453 182.127 29.968 181.615 28.688C181.124 27.408 180.879 25.936 180.879 24.272C180.879 22.608 181.135 21.1467 181.647 19.888C182.159 18.608 182.863 17.5413 183.759 16.688C184.655 15.8133 185.7 15.152 186.895 14.704C188.111 14.256 189.423 14.032 190.831 14.032C192.239 14.032 193.551 14.256 194.767 14.704C195.983 15.152 197.039 15.8133 197.935 16.688C198.831 17.5413 199.535 18.608 200.047 19.888C200.559 21.1467 200.815 22.608 200.815 24.272ZM195.631 24.272C195.631 22.224 195.194 20.688 194.319 19.664C193.466 18.6187 192.303 18.096 190.831 18.096C189.38 18.096 188.218 18.6187 187.343 19.664C186.468 20.688 186.031 22.224 186.031 24.272C186.031 26.3413 186.458 27.8987 187.311 28.944C188.186 29.968 189.359 30.48 190.831 30.48C192.303 30.48 193.466 29.968 194.319 28.944C195.194 27.8987 195.631 26.3413 195.631 24.272ZM216.853 24.304C216.853 22.2347 216.341 20.6987 215.317 19.696C214.314 18.672 213.002 18.16 211.381 18.16C210.997 18.16 210.634 18.1707 210.293 18.192C209.952 18.2133 209.61 18.256 209.269 18.32V30.224C209.546 30.288 209.877 30.3413 210.261 30.384C210.666 30.4053 211.05 30.416 211.413 30.416C213.077 30.416 214.4 29.9147 215.381 28.912C216.362 27.888 216.853 26.352 216.853 24.304ZM222.037 24.24C222.037 25.9467 221.781 27.44 221.269 28.72C220.757 30 220.032 31.0667 219.093 31.92C218.176 32.7733 217.056 33.4133 215.733 33.84C214.432 34.2667 212.981 34.48 211.381 34.48C211.018 34.48 210.602 34.4693 210.133 34.448C209.685 34.4267 209.216 34.384 208.725 34.32C208.256 34.2773 207.776 34.2027 207.285 34.096C206.794 34.0107 206.346 33.8933 205.941 33.744C204.832 33.3387 204.277 32.6133 204.277 31.568V16.336C204.277 15.9093 204.384 15.5787 204.597 15.344C204.832 15.1093 205.162 14.9173 205.589 14.768C206.464 14.4907 207.392 14.3093 208.373 14.224C209.354 14.1387 210.25 14.096 211.061 14.096C212.704 14.096 214.197 14.2987 215.541 14.704C216.885 15.1093 218.037 15.7387 218.997 16.592C219.957 17.424 220.704 18.48 221.237 19.76C221.77 21.0187 222.037 22.512 222.037 24.24ZM244.44 24.272C244.44 25.936 244.184 27.408 243.672 28.688C243.181 29.968 242.488 31.0453 241.592 31.92C240.696 32.7733 239.64 33.424 238.424 33.872C237.208 34.32 235.885 34.544 234.456 34.544C233.027 34.544 231.704 34.32 230.488 33.872C229.272 33.424 228.216 32.7733 227.32 31.92C226.445 31.0453 225.752 29.968 225.24 28.688C224.749 27.408 224.504 25.936 224.504 24.272C224.504 22.608 224.76 21.1467 225.272 19.888C225.784 18.608 226.488 17.5413 227.384 16.688C228.28 15.8133 229.325 15.152 230.52 14.704C231.736 14.256 233.048 14.032 234.456 14.032C235.864 14.032 237.176 14.256 238.392 14.704C239.608 15.152 240.664 15.8133 241.56 16.688C242.456 17.5413 243.16 18.608 243.672 19.888C244.184 21.1467 244.44 22.608 244.44 24.272ZM239.256 24.272C239.256 22.224 238.819 20.688 237.944 19.664C237.091 18.6187 235.928 18.096 234.456 18.096C233.005 18.096 231.843 18.6187 230.968 19.664C230.093 20.688 229.656 22.224 229.656 24.272C229.656 26.3413 230.083 27.8987 230.936 28.944C231.811 29.968 232.984 30.48 234.456 30.48C235.928 30.48 237.091 29.968 237.944 28.944C238.819 27.8987 239.256 26.3413 239.256 24.272ZM256.964 34.064C256.154 34.064 255.503 33.8293 255.012 33.36C254.543 32.8693 254.308 32.2187 254.308 31.408V14.544C254.543 14.5013 254.874 14.448 255.3 14.384C255.748 14.32 256.186 14.288 256.612 14.288C257.572 14.288 258.266 14.448 258.692 14.768C259.119 15.088 259.332 15.7173 259.332 16.656V30H267.012C267.14 30.2133 267.258 30.4907 267.364 30.832C267.492 31.1733 267.556 31.5467 267.556 31.952C267.556 32.656 267.396 33.1893 267.076 33.552C266.778 33.8933 266.362 34.064 265.828 34.064H256.964ZM273.34 34.224C272.337 34.224 271.633 34.0533 271.228 33.712C270.844 33.3707 270.652 32.752 270.652 31.856V14.544C270.887 14.5013 271.217 14.448 271.644 14.384C272.092 14.32 272.54 14.288 272.988 14.288C273.948 14.288 274.631 14.448 275.036 14.768C275.463 15.088 275.676 15.7173 275.676 16.656V33.968C275.441 34.032 275.111 34.0853 274.684 34.128C274.257 34.192 273.809 34.224 273.34 34.224ZM285.976 30.448C287.107 30.448 287.907 30.256 288.376 29.872C288.867 29.4667 289.112 28.9867 289.112 28.432C289.112 27.92 288.92 27.5147 288.536 27.216C288.173 26.896 287.619 26.6187 286.872 26.384L285.24 25.872C284.344 25.5947 283.533 25.296 282.808 24.976C282.083 24.6347 281.464 24.24 280.952 23.792C280.44 23.3227 280.035 22.7787 279.736 22.16C279.459 21.52 279.32 20.752 279.32 19.856C279.32 18.064 279.992 16.6453 281.336 15.6C282.701 14.5547 284.589 14.032 287 14.032C287.917 14.032 288.76 14.096 289.528 14.224C290.317 14.352 290.989 14.5547 291.544 14.832C292.099 15.088 292.536 15.408 292.856 15.792C293.176 16.176 293.336 16.624 293.336 17.136C293.336 17.6267 293.208 18.064 292.952 18.448C292.717 18.8107 292.44 19.12 292.12 19.376C291.629 19.0347 290.979 18.7467 290.168 18.512C289.357 18.2773 288.472 18.16 287.512 18.16C286.488 18.16 285.731 18.32 285.24 18.64C284.749 18.96 284.504 19.3653 284.504 19.856C284.504 20.2827 284.664 20.6133 284.984 20.848C285.304 21.0613 285.805 21.2853 286.488 21.52L288.216 22.096C289.219 22.4373 290.093 22.8107 290.84 23.216C291.608 23.6 292.248 24.048 292.76 24.56C293.272 25.0507 293.656 25.6267 293.912 26.288C294.168 26.928 294.296 27.664 294.296 28.496C294.296 29.392 294.115 30.2133 293.752 30.96C293.411 31.6853 292.888 32.3147 292.184 32.848C291.501 33.3813 290.648 33.7973 289.624 34.096C288.621 34.3947 287.459 34.544 286.136 34.544C285.155 34.544 284.248 34.4587 283.416 34.288C282.584 34.1387 281.859 33.9147 281.24 33.616C280.643 33.3173 280.163 32.9547 279.8 32.528C279.459 32.08 279.288 31.5787 279.288 31.024C279.288 30.448 279.448 29.968 279.768 29.584C280.109 29.2 280.483 28.8907 280.888 28.656C281.464 29.1253 282.179 29.5413 283.032 29.904C283.907 30.2667 284.888 30.448 285.976 30.448ZM306.175 18.64V33.968C305.941 34.032 305.61 34.0853 305.183 34.128C304.757 34.192 304.309 34.224 303.839 34.224C302.837 34.224 302.133 34.0533 301.727 33.712C301.322 33.3707 301.119 32.752 301.119 31.856V18.64H296.095C295.967 18.4267 295.839 18.1493 295.711 17.808C295.605 17.4667 295.551 17.0933 295.551 16.688C295.551 15.9627 295.711 15.44 296.031 15.12C296.351 14.7787 296.789 14.608 297.343 14.608H311.327C311.477 14.8213 311.605 15.0987 311.711 15.44C311.818 15.7813 311.871 16.1547 311.871 16.56C311.871 17.264 311.711 17.7867 311.391 18.128C311.071 18.4693 310.634 18.64 310.079 18.64H306.175Z" fill="#333333"/>
<g clip-path="url(#clip0_6_363)">
<path d="M36.473 23.3475C36.3704 23.3154 36.2715 23.3072 36.1758 23.3231C35.9699 23.3571 35.8015 23.4662 35.6696 23.6508L34.4019 25.4206C34.2835 25.5867 34.2409 25.7723 34.2749 25.9781L35.2718 32.0054C35.4445 33.0498 35.2213 34.0046 34.6003 34.8715C33.9797 35.738 33.1472 36.2577 32.1029 36.4304L12.3586 39.6958C11.3143 39.8686 10.3589 39.6446 9.49238 39.0241C8.62569 38.4032 8.1063 37.5712 7.93356 36.5268L4.66816 16.7829C4.49548 15.7387 4.71927 14.7834 5.33993 13.9167C5.96045 13.0501 6.79293 12.5306 7.83724 12.3578L27.5817 9.09235C27.9299 9.03478 28.2936 9.02338 28.6731 9.05821C28.7733 9.07392 28.8471 9.07819 28.894 9.07044C29.1 9.03637 29.269 8.92739 29.4009 8.74307L30.3714 7.38791C30.5298 7.16694 30.5633 6.92555 30.471 6.66474C30.3816 6.41941 30.209 6.26095 29.9534 6.18957C29.0342 5.93579 28.0755 5.89053 27.0788 6.05537L7.33494 9.32076C5.45229 9.63212 3.95298 10.5668 2.8372 12.1248C1.7216 13.6829 1.31936 15.4031 1.63075 17.2858L4.89622 37.0302C5.20755 38.9126 6.14223 40.4118 7.70014 41.5276C9.2582 42.6438 10.9786 43.0459 12.8613 42.7346L32.6055 39.4691C34.4879 39.1578 35.9874 38.2231 37.1031 36.6647C38.219 35.1067 38.6218 33.3864 38.3105 31.5039L37.0623 23.9569C37.0072 23.625 36.8103 23.422 36.473 23.3475Z" fill="#333333"/>
<path d="M40.1771 8.74065L37.1347 6.56173C36.6922 6.24492 36.2096 6.1297 35.6874 6.21607C35.1658 6.30233 34.7457 6.56685 34.4291 7.00919L21.6142 24.9028L14.341 19.6936C13.8984 19.3766 13.4161 19.2616 12.8942 19.3479C12.3722 19.4342 11.9527 19.6984 11.6356 20.1411L9.457 23.1832C9.14011 23.6256 9.02469 24.1081 9.11106 24.6303C9.19739 25.1523 9.46197 25.5717 9.90448 25.8888L21.7965 34.4054C22.2391 34.7225 22.7214 34.8375 23.2433 34.7511C23.7652 34.6648 24.1848 34.4008 24.5018 33.958L40.6243 11.446C40.941 11.0036 41.0566 10.5211 40.9703 9.99907C40.8839 9.47708 40.6196 9.05746 40.1771 8.74065Z" fill="#333333"/>
</g>
<defs>
<clipPath id="clip0_6_363">
<rect width="40.0012" height="40.0012" fill="white" transform="translate(0 7.42548) rotate(-9.391)"/>
</clipPath>
</defs>
</svg>
